<!-- Auto-generated. Do not edit by hand. -->
<svg xmlns="http://www.w3.org/2000/svg" style="display:none">
<symbol id="add" viewBox="0 0 20 20"><defs id="defs1"/><g id="layer1"><path style="font-size:7.83931px;font-family:&apos;Gill Sans&apos;;-inkscape-font-specification:Ubuntu;letter-spacing:0px;word-spacing:0px;fill: var(--foreground);stroke: none;stroke-width:0.999999px" d="m 3.6149014,11.474766 q 0.2586972,0 0.45468,-0.0078 0.203822,-0.01568 0.3370903,-0.04704 v -1.215093 q -0.078393,-0.0392 -0.2586972,-0.06272 -0.1724649,-0.03136 -0.4233228,-0.03136 -0.1646255,0 -0.352769,0.02352 -0.1803041,0.02352 -0.3370903,0.101911 -0.1489469,0.07055 -0.2508579,0.203822 -0.101911,0.125429 -0.101911,0.337091 0,0.391965 0.2508579,0.548751 0.2508579,0.148947 0.68202,0.148947 z M 3.5521869,7.8216477 q 0.4390014,0 0.7368951,0.1175896 0.3057331,0.1097504 0.4860373,0.3214117 0.1881434,0.2038221 0.2665365,0.4938766 0.078393,0.2822152 0.078393,0.6271448 v 2.5477756 q -0.094072,0.01568 -0.2665365,0.04704 Q 4.6888869,12 4.4772255,12.023518 q -0.2116614,0.02352 -0.4625193,0.0392 -0.2430186,0.02352 -0.4860372,0.02352 -0.3449297,0 -0.6349842,-0.07055 Q 2.6036304,11.945125 2.391969,11.796178 2.1803076,11.639392 2.062718,11.388534 1.9451283,11.137676 1.9451283,10.784907 q 0,-0.33709 0.1332683,-0.580109 Q 2.2195042,9.9617794 2.4546835,9.8128325 2.6898628,9.6638856 3.0034352,9.5933318 3.3170076,9.522778 3.6619372,9.522778 q 0.1097504,0 0.22734,0.015679 0.1175897,0.00784 0.2195007,0.031357 0.1097503,0.015679 0.1881434,0.031357 0.078393,0.015679 0.1097504,0.023518 V 9.420867 q 0,-0.1803042 -0.039197,-0.352769 Q 4.3282786,8.8877939 4.2263676,8.7545256 4.1244565,8.613418 3.9441524,8.5350249 q -0.1724648,-0.086232 -0.45468,-0.086232 -0.3606083,0 -0.6349841,0.054875 -0.2665366,0.047036 -0.3998048,0.101911 L 2.368451,8.0019518 q 0.1411076,-0.062715 0.4703587,-0.1175896 0.329251,-0.062715 0.7133772,-0.062715 z" id="path1"/><path style="font-size:7.83931px;font-family:&apos;Gill Sans&apos;;-inkscape-font-specification:&apos;Ubuntu Bold&apos;;letter-spacing:0px;word-spacing:0px;fill: var(--icon-accent);stroke: none;stroke-width:0.999999px" d="M 7.8951516,9.170009 H 9.2043164 V 7.7197366 H 10.270463 V 9.170009 h 1.309164 v 0.979914 h -1.309164 v 1.450272 H 9.2043164 V 10.149923 H 7.8951516 Z" id="path2"/><path style="font-size:7.83931px;font-family:&apos;Gill Sans&apos;;-inkscape-font-specification:Ubuntu;letter-spacing:0px;word-spacing:0px;fill: var(--foreground);stroke: none;stroke-width:0.999999px" d="m 15.130819,8.1038628 q 0.133268,-0.086232 0.399805,-0.1803041 0.274375,-0.094072 0.627144,-0.094072 0.439002,0 0.776092,0.1567862 0.34493,0.1567862 0.580109,0.4390014 0.235179,0.2822151 0.352769,0.6741806 0.125429,0.3919655 0.125429,0.8623242 0,0.4938769 -0.148947,0.8936819 -0.141107,0.391965 -0.407644,0.666341 -0.266537,0.274376 -0.642823,0.423323 -0.376287,0.148947 -0.846646,0.148947 -0.509555,0 -0.901521,-0.07055 -0.391965,-0.07055 -0.642823,-0.141108 V 6.0421243 l 0.729056,-0.125429 z m 0,3.2611532 q 0.10975,0.03136 0.305733,0.06271 0.203822,0.02352 0.501716,0.02352 0.587948,0 0.940717,-0.384126 0.352769,-0.391965 0.352769,-1.1053426 0,-0.3135725 -0.06271,-0.5879483 Q 17.106325,9.0994552 16.965217,8.9034725 16.82411,8.6996504 16.59677,8.5899001 16.377269,8.4723104 16.063697,8.4723104 q -0.297894,0 -0.548752,0.1019111 -0.250858,0.101911 -0.384126,0.2116613 z" id="path3"/></g></symbol>
<symbol id="arc" viewBox="0 0 20 20"><defs id="defs1"/><g id="layer1"><path d="M 5.035652,15.621855 A 7.5,7.5 0 0 1 2.8306252,7.7977137 7.5,7.5 0 0 1 9.0477751,2.5606944 7.5,7.5 0 0 1 16.383545,6.0629513" style="fill: none;stroke: var(--icon-accent)" id="path8"/><circle cx="10" cy="10" r="1.5" id="circle8" style="fill: var(--background);stroke: var(--foreground)"/></g></symbol>
<symbol id="blank" viewBox="0 0 20 20"><defs id="defs1"/><g id="layer1"/></symbol>
<symbol id="blankText" viewBox="0 0 20 20"><defs id="defs1"/><g id="layer1"><g id="g15" transform="translate(2.75,5.0575)"><text xml:space="preserve" style="font-size:7.83931px;line-height:125%;font-family:&apos;Gill Sans&apos;;-inkscape-font-specification:&apos;Gill Sans&apos;;letter-spacing:0px;word-spacing:0px;fill: none;stroke: var(--foreground);stroke-width:0.999999px;stroke-linecap:butt;stroke-linejoin:miter;stroke-opacity:1" x="7.2500005" y="6.9425001" id="text15"><tspan id="tspan15" x="7.2500005" y="6.9425001" style="font-style:normal;font-variant:normal;font-weight:normal;font-stretch:normal;font-size:7.83931px;font-family:Ubuntu;-inkscape-font-specification:Ubuntu;text-align:center;text-anchor:middle;fill: var(--icon-accent);stroke: none;stroke-width:0.999999px"><tspan style="fill: var(--foreground)" id="tspan1">a</tspan> <tspan style="font-weight:bold" id="tspan8">&gt;</tspan> <tspan style="fill: var(--foreground)" id="tspan2">b</tspan></tspan></text></g></g></symbol>
<symbol id="calc" viewBox="0 0 20 20"><defs id="defs1"/><g id="layer1"><path style="-inkscape-font-specification:Ubuntu;fill: var(--icon-accent);stroke-width:0.999998px" d="m 11.900991,9.5560302 q -0.402703,0.4956348 -0.805407,1.0532248 -0.402703,0.542101 -0.789918,1.099691 -0.3872155,0.557589 -0.7589419,1.115179 -0.3562378,0.557589 -0.6505212,1.068713 h 5.0183061 v 2.029007 H 6.0463005 V 14.434939 Q 6.8052419,13.025477 7.6261377,11.817366 8.4625221,10.609255 9.2524407,9.4940758 8.4470335,8.3479195 7.6571149,7.2327403 6.8826849,6.1020725 6.0927663,4.9404275 V 3.4999877 H 13.914509 V 5.5289943 H 9.1285319 q 0.2942834,0.4181922 0.6350326,0.9138274 0.3407495,0.4956352 0.6969865,1.0222476 0.356238,0.5266124 0.727965,1.0687134 0.371726,0.542101 0.712475,1.0222475 z" id="text15" aria-label="&#x2211;"/></g></symbol>
<symbol id="center" viewBox="0 0 20 20"><defs id="defs1"/><g id="layer1"><path d="m 3,13 4,-7 6,-3 4,7 -6,7 z" id="path29" style="fill: var(--background);stroke: var(--foreground)"/><circle id="circle29" cx="10.5" cy="10" r="1.5" style="fill: var(--background);stroke: var(--icon-accent)"/></g></symbol>
<symbol id="circle" viewBox="0 0 20 20"><defs id="defs1"/><g id="layer1"><circle cx="10" cy="10" r="7.5" id="circle6" style="fill: var(--background);stroke: var(--icon-accent)"/><circle cx="10" cy="10" r="1.5" id="circle7" style="fill: var(--background);stroke: var(--foreground)"/></g></symbol>
<symbol id="divide" viewBox="0 0 20 20"><defs id="defs1"/><g id="layer1"><path style="font-size:7.83931px;font-family:&apos;Gill Sans&apos;;-inkscape-font-specification:Ubuntu;letter-spacing:0px;word-spacing:0px;fill: var(--foreground);stroke: none;stroke-width:0.999999px" d="m 4.1283782,11.474766 q 0.2586973,0 0.45468,-0.0078 0.2038221,-0.01568 0.3370903,-0.04704 v -1.215093 q -0.078393,-0.0392 -0.2586972,-0.06272 -0.1724648,-0.03136 -0.4233227,-0.03136 -0.1646256,0 -0.352769,0.02352 -0.1803041,0.02352 -0.3370903,0.101911 -0.1489469,0.07055 -0.250858,0.203822 -0.101911,0.125429 -0.101911,0.337091 0,0.391965 0.2508579,0.548751 0.250858,0.148947 0.68202,0.148947 z M 4.0656637,7.8216477 q 0.4390014,0 0.7368952,0.1175896 0.3057331,0.1097504 0.4860372,0.3214117 0.1881435,0.2038221 0.2665366,0.4938766 0.078393,0.2822152 0.078393,0.6271448 V 11.929446 Q 5.539454,11.945125 5.3669892,11.976482 5.2023637,12 4.9907023,12.023518 q -0.2116613,0.02352 -0.4625193,0.0392 -0.2430186,0.02352 -0.4860372,0.02352 -0.3449296,0 -0.6349841,-0.07055 -0.2900545,-0.07055 -0.5017159,-0.219501 -0.2116613,-0.156786 -0.329251,-0.407644 -0.1175897,-0.250858 -0.1175897,-0.603627 0,-0.33709 0.1332683,-0.580109 Q 2.732981,9.9617794 2.9681603,9.8128325 3.2033396,9.6638856 3.516912,9.5933318 3.8304844,9.522778 4.1754141,9.522778 q 0.1097503,0 0.22734,0.015679 0.1175896,0.00784 0.2195007,0.031357 0.1097503,0.015679 0.1881434,0.031357 0.078393,0.015679 0.1097503,0.023518 V 9.420867 q 0,-0.1803042 -0.039197,-0.352769 Q 4.8417554,8.8877939 4.7398444,8.7545256 4.6379334,8.613418 4.4576292,8.5350249 4.2851644,8.4487925 4.0029493,8.4487925 q -0.3606083,0 -0.6349842,0.054875 -0.2665365,0.047036 -0.3998048,0.101911 L 2.8819279,8.0019518 q 0.1411076,-0.062715 0.4703586,-0.1175896 0.329251,-0.062715 0.7133772,-0.062715 z" id="path1"/><path style="font-size:7.83931px;font-family:&apos;Gill Sans&apos;;-inkscape-font-specification:&apos;Ubuntu Bold&apos;;letter-spacing:0px;word-spacing:0px;fill: var(--icon-accent);stroke: none;stroke-width:0.999999px" d="M 9.027934,13.450272 H 7.8285195 L 10.462528,5.8618201 h 1.183736 z" id="path2"/><path style="font-size:7.83931px;font-family:&apos;Gill Sans&apos;;-inkscape-font-specification:Ubuntu;letter-spacing:0px;word-spacing:0px;fill: var(--foreground);stroke: none;stroke-width:0.999999px" d="m 14.617342,8.1038628 q 0.133268,-0.086232 0.399805,-0.1803041 0.274376,-0.094072 0.627145,-0.094072 0.439001,0 0.776091,0.1567862 0.34493,0.1567862 0.580109,0.4390014 0.23518,0.2822151 0.352769,0.6741806 0.125429,0.3919655 0.125429,0.8623242 0,0.4938769 -0.148947,0.8936819 -0.141107,0.391965 -0.407644,0.666341 -0.266536,0.274376 -0.642823,0.423323 -0.376287,0.148947 -0.846646,0.148947 -0.509555,0 -0.90152,-0.07055 -0.391966,-0.07055 -0.642824,-0.141108 V 6.0421243 l 0.729056,-0.125429 z m 0,3.2611532 q 0.10975,0.03136 0.305733,0.06271 0.203822,0.02352 0.501716,0.02352 0.587948,0 0.940717,-0.384126 0.352769,-0.391965 0.352769,-1.1053426 0,-0.3135725 -0.06271,-0.5879483 Q 16.592848,9.0994552 16.451741,8.9034725 16.310633,8.6996504 16.083293,8.5899001 15.863792,8.4723104 15.55022,8.4723104 q -0.297894,0 -0.548752,0.1019111 -0.250858,0.101911 -0.384126,0.2116613 z" id="path3"/></g></symbol>
<symbol id="evaluateCurve" viewBox="0 0 20 20"><defs id="defs1"/><g id="layer1"><path d="m 1.5,14.5 13,-13" id="path11" style="fill: none;stroke: var(--foreground)"/><circle id="circle11" cx="8" cy="8" r="1.5" style="fill: var(--background);stroke: var(--icon-accent)"/><path d="M 16.646484,7.6464844 7.6464844,16.646484 8.3535156,17.353516 17.353516,8.3535156 Z" id="path19" style="fill: var(--icon-accent);stroke: none"/><g id="g21" style="fill: var(--icon-accent);stroke: none"><path d="M 18.020002,6.9799985 17.374767,9.3930004 15.607,7.6252334 Z" id="path20" style="fill: var(--icon-accent)"/><path d="m 18.255859,6.7441406 -2.970703,0.7949219 2.175781,2.1757813 z M 17.785156,7.2148437 17.287109,9.0703125 15.929688,7.7128906 Z" id="path21" style="fill: var(--icon-accent)"/></g><g id="g23" style="fill: var(--icon-accent);stroke: none"><path d="M 6.9799985,18.020002 7.6252334,15.607 l 1.767767,1.767767 z" id="path22" style="fill: var(--icon-accent)"/><path d="m 7.5390625,15.285156 -0.7949219,2.970703 2.9707032,-0.794922 z m 0.1738281,0.644532 1.3574219,1.357421 -1.8554688,0.498047 z" id="path23" style="fill: var(--icon-accent)"/></g></g></symbol>
<symbol id="filterList" viewBox="0 0 20 20"><defs id="defs1"/><g id="layer1"><path style="fill: none;fill-rule:evenodd;stroke: var(--foreground);stroke-width:1px;stroke-linecap:butt;stroke-linejoin:miter;stroke-opacity:1" d="M 4,2 V 5 H 6.5" id="path4"/><rect id="rect4" width="4" height="3" x="6.5" y="3.5" style="fill: var(--background);stroke: var(--icon-accent);stroke-width:0.999999"/><rect id="rect4-9" width="4" height="3" x="6.5" y="9.5" style="fill: var(--background);stroke: var(--icon-accent);stroke-width:0.999999"/><rect id="rect4-9-2" width="4" height="3" x="12.5" y="12.5" style="fill: var(--background);stroke: var(--foreground);stroke-width:1;stroke-dasharray:none"/><rect id="rect4-3" width="4" height="3" x="12.5" y="6.5" style="fill: var(--background);stroke: var(--foreground);stroke-width:1;stroke-dasharray:none"/></g></symbol>
<symbol id="greaterThan" viewBox="0 0 20 20"><defs id="defs1"/><g id="layer1"><path style="font-size:7.83931px;font-family:&apos;Gill Sans&apos;;-inkscape-font-specification:Ubuntu;letter-spacing:0px;word-spacing:0px;fill: var(--foreground);stroke: none;stroke-width:0.999999px" d="m 3.6149014,11.474766 q 0.2586972,0 0.45468,-0.0078 0.203822,-0.01568 0.3370903,-0.04704 v -1.215093 q -0.078393,-0.0392 -0.2586972,-0.06272 -0.1724649,-0.03136 -0.4233228,-0.03136 -0.1646255,0 -0.352769,0.02352 -0.1803041,0.02352 -0.3370903,0.101911 -0.1489469,0.07055 -0.2508579,0.203822 -0.101911,0.125429 -0.101911,0.337091 0,0.391965 0.2508579,0.548751 0.2508579,0.148947 0.68202,0.148947 z M 3.5521869,7.8216477 q 0.4390014,0 0.7368951,0.1175896 0.3057331,0.1097504 0.4860373,0.3214117 0.1881434,0.2038221 0.2665365,0.4938766 0.078393,0.2822152 0.078393,0.6271448 v 2.5477756 q -0.094072,0.01568 -0.2665365,0.04704 Q 4.6888869,12 4.4772255,12.023518 q -0.2116614,0.02352 -0.4625193,0.0392 -0.2430186,0.02352 -0.4860372,0.02352 -0.3449297,0 -0.6349842,-0.07055 Q 2.6036304,11.945125 2.391969,11.796178 2.1803076,11.639392 2.062718,11.388534 1.9451283,11.137676 1.9451283,10.784907 q 0,-0.33709 0.1332683,-0.580109 Q 2.2195042,9.9617794 2.4546835,9.8128325 2.6898628,9.6638856 3.0034352,9.5933318 3.3170076,9.522778 3.6619372,9.522778 q 0.1097504,0 0.22734,0.015679 0.1175897,0.00784 0.2195007,0.031357 0.1097503,0.015679 0.1881434,0.031357 0.078393,0.015679 0.1097504,0.023518 V 9.420867 q 0,-0.1803042 -0.039197,-0.352769 Q 4.3282786,8.8877939 4.2263676,8.7545256 4.1244565,8.613418 3.9441524,8.5350249 q -0.1724648,-0.086232 -0.45468,-0.086232 -0.3606083,0 -0.6349841,0.054875 -0.2665366,0.047036 -0.3998048,0.101911 L 2.368451,8.0019518 q 0.1411076,-0.062715 0.4703587,-0.1175896 0.329251,-0.062715 0.7133772,-0.062715 z" id="path1"/><path style="font-size:7.83931px;font-family:&apos;Gill Sans&apos;;-inkscape-font-specification:Ubuntu;letter-spacing:0px;word-spacing:0px;fill: var(--icon-accent);stroke: none;stroke-width:0.999999px" d="M 11.571788,10.142083 8.2008847,11.560999 7.8951516,10.612442 10.356695,9.6560463 7.8951516,8.6996504 8.2008847,7.7510939 11.571788,9.170009 Z" id="path2"/><path style="font-size:7.83931px;font-family:&apos;Gill Sans&apos;;-inkscape-font-specification:Ubuntu;letter-spacing:0px;word-spacing:0px;fill: var(--foreground);stroke: none;stroke-width:0.999999px" d="m 15.130819,8.1038628 q 0.133268,-0.086232 0.399805,-0.1803041 0.274375,-0.094072 0.627144,-0.094072 0.439002,0 0.776092,0.1567862 0.34493,0.1567862 0.580109,0.4390014 0.235179,0.2822151 0.352769,0.6741806 0.125429,0.3919655 0.125429,0.8623242 0,0.4938769 -0.148947,0.8936819 -0.141107,0.391965 -0.407644,0.666341 -0.266537,0.274376 -0.642823,0.423323 -0.376287,0.148947 -0.846646,0.148947 -0.509555,0 -0.901521,-0.07055 -0.391965,-0.07055 -0.642823,-0.141108 V 6.0421243 l 0.729056,-0.125429 z m 0,3.2611532 q 0.10975,0.03136 0.305733,0.06271 0.203822,0.02352 0.501716,0.02352 0.587948,0 0.940717,-0.384126 0.352769,-0.391965 0.352769,-1.1053426 0,-0.3135725 -0.06271,-0.5879483 Q 17.106325,9.0994552 16.965217,8.9034725 16.82411,8.6996504 16.59677,8.5899001 16.377269,8.4723104 16.063697,8.4723104 q -0.297894,0 -0.548752,0.1019111 -0.250858,0.101911 -0.384126,0.2116613 z" id="path3"/></g></symbol>
<symbol id="hexGrid" viewBox="0 0 20 20"><defs id="defs1"/><g id="layer1"><path id="path3" d="m 6,18 c 0,-0.0017 -2.0014882,3.464961 -2,3.464102 0.00149,-8.6e-4 -4.00148823,-8.6e-4 -4,0 0.00148823,8.59e-4 -2,-3.46582 -2,-3.464102 0,0.0017 2.00148823,-3.464961 2,-3.464102 -0.00148823,8.6e-4 4.0014882,8.6e-4 4,0 -0.00149,-8.59e-4 2,3.46582 2,3.464102 z" style="fill: var(--background);stroke: var(--icon-accent)" transform="translate(4.9823236,-7.9999994)"/><path id="path3-5" d="m 6,18 c 0,-0.0017 -2.0014882,3.464961 -2,3.464102 0.00149,-8.6e-4 -4.00148823,-8.6e-4 -4,0 0.00148823,8.59e-4 -2,-3.46582 -2,-3.464102 0,0.0017 2.00148823,-3.464961 2,-3.464102 -0.00148823,8.6e-4 4.0014882,8.6e-4 4,0 -0.00149,-8.59e-4 2,3.46582 2,3.464102 z" style="fill: var(--background);stroke: var(--icon-accent)" transform="translate(10.982323,-11.464101)"/><path id="path3-6" d="m 6,18 c 0,-0.0017 -2.0014882,3.464961 -2,3.464102 0.00149,-8.6e-4 -4.00148823,-8.6e-4 -4,0 0.00148823,8.59e-4 -2,-3.46582 -2,-3.464102 0,0.0017 2.00148823,-3.464961 2,-3.464102 -0.00148823,8.6e-4 4.0014882,8.6e-4 4,0 -0.00149,-8.59e-4 2,3.46582 2,3.464102 z" style="fill: var(--background);stroke: var(--icon-accent)" transform="translate(10.982325,-4.5358983)"/><path style="fill: none;fill-rule:evenodd;stroke: var(--icon-accent);stroke-width:1px;stroke-linecap:round;stroke-linejoin:miter;stroke-opacity:1" d="M 2.9823227,3.0717979 4.9823233,6.5358996" id="path4"/><path style="fill: none;fill-rule:evenodd;stroke: var(--icon-accent);stroke-width:1px;stroke-linecap:round;stroke-linejoin:miter;stroke-opacity:1" d="M 4.9823236,13.464102 2.9823257,16.928203" id="path5"/></g></symbol>
<symbol id="lessThan" viewBox="0 0 20 20"><defs id="defs1"/><g id="layer1"><path style="font-size:7.83931px;font-family:&apos;Gill Sans&apos;;-inkscape-font-specification:Ubuntu;letter-spacing:0px;word-spacing:0px;fill: var(--foreground);stroke: none;stroke-width:0.999999px" d="m 3.6149014,11.474766 q 0.2586972,0 0.45468,-0.0078 0.203822,-0.01568 0.3370903,-0.04704 v -1.215093 q -0.078393,-0.0392 -0.2586972,-0.06272 -0.1724649,-0.03136 -0.4233228,-0.03136 -0.1646255,0 -0.352769,0.02352 -0.1803041,0.02352 -0.3370903,0.101911 -0.1489469,0.07055 -0.2508579,0.203822 -0.101911,0.125429 -0.101911,0.337091 0,0.391965 0.2508579,0.548751 0.2508579,0.148947 0.68202,0.148947 z M 3.5521869,7.8216477 q 0.4390014,0 0.7368951,0.1175896 0.3057331,0.1097504 0.4860373,0.3214117 0.1881434,0.2038221 0.2665365,0.4938766 0.078393,0.2822152 0.078393,0.6271448 v 2.5477756 q -0.094072,0.01568 -0.2665365,0.04704 Q 4.6888869,12 4.4772255,12.023518 q -0.2116614,0.02352 -0.4625193,0.0392 -0.2430186,0.02352 -0.4860372,0.02352 -0.3449297,0 -0.6349842,-0.07055 Q 2.6036304,11.945125 2.391969,11.796178 2.1803076,11.639392 2.062718,11.388534 1.9451283,11.137676 1.9451283,10.784907 q 0,-0.33709 0.1332683,-0.580109 Q 2.2195042,9.9617794 2.4546835,9.8128325 2.6898628,9.6638856 3.0034352,9.5933318 3.3170076,9.522778 3.6619372,9.522778 q 0.1097504,0 0.22734,0.015679 0.1175897,0.00784 0.2195007,0.031357 0.1097503,0.015679 0.1881434,0.031357 0.078393,0.015679 0.1097504,0.023518 V 9.420867 q 0,-0.1803042 -0.039197,-0.352769 Q 4.3282786,8.8877939 4.2263676,8.7545256 4.1244565,8.613418 3.9441524,8.5350249 q -0.1724648,-0.086232 -0.45468,-0.086232 -0.3606083,0 -0.6349841,0.054875 -0.2665366,0.047036 -0.3998048,0.101911 L 2.368451,8.0019518 q 0.1411076,-0.062715 0.4703587,-0.1175896 0.329251,-0.062715 0.7133772,-0.062715 z" id="path1"/><path style="font-size:7.83931px;font-family:&apos;Gill Sans&apos;;-inkscape-font-specification:&apos;Ubuntu Bold&apos;;letter-spacing:0px;word-spacing:0px;fill: var(--icon-accent);stroke: none;stroke-width:0.999999px" d="m 7.902991,9.170009 3.370903,-1.4189151 0.305733,0.9485565 -2.461543,0.9563959 2.461543,0.9563957 -0.305733,0.948557 -3.370903,-1.418916 z" id="path2"/><path style="font-size:7.83931px;font-family:&apos;Gill Sans&apos;;-inkscape-font-specification:Ubuntu;letter-spacing:0px;word-spacing:0px;fill: var(--foreground);stroke: none;stroke-width:0.999999px" d="m 15.130819,8.1038628 q 0.133268,-0.086232 0.399805,-0.1803041 0.274375,-0.094072 0.627144,-0.094072 0.439002,0 0.776092,0.1567862 0.34493,0.1567862 0.580109,0.4390014 0.235179,0.2822151 0.352769,0.6741806 0.125429,0.3919655 0.125429,0.8623242 0,0.4938769 -0.148947,0.8936819 -0.141107,0.391965 -0.407644,0.666341 -0.266537,0.274376 -0.642823,0.423323 -0.376287,0.148947 -0.846646,0.148947 -0.509555,0 -0.901521,-0.07055 -0.391965,-0.07055 -0.642823,-0.141108 V 6.0421243 l 0.729056,-0.125429 z m 0,3.2611532 q 0.10975,0.03136 0.305733,0.06271 0.203822,0.02352 0.501716,0.02352 0.587948,0 0.940717,-0.384126 0.352769,-0.391965 0.352769,-1.1053426 0,-0.3135725 -0.06271,-0.5879483 Q 17.106325,9.0994552 16.965217,8.9034725 16.82411,8.6996504 16.59677,8.5899001 16.377269,8.4723104 16.063697,8.4723104 q -0.297894,0 -0.548752,0.1019111 -0.250858,0.101911 -0.384126,0.2116613 z" id="path3"/></g></symbol>
<symbol id="line" viewBox="0 0 20 20"><defs id="defs1"/><g id="layer1"><path d="M 4.0000001,16 16.000001,4.0000001" id="path7" style="fill: #c0c0c0;stroke: var(--icon-accent)"/><circle cx="4" cy="16" r="1.5" id="circle7" style="fill: var(--background);stroke: var(--foreground)"/><circle cx="16" cy="4" r="1.5" id="circle8" style="fill: var(--background);stroke: var(--foreground)"/></g></symbol>
<symbol id="listItem" viewBox="0 0 20 20"><defs id="defs1"/><g id="layer1"><rect id="rect4" width="4" height="3" x="8.5" y="3.5" style="fill: var(--background);stroke: var(--foreground);stroke-width:0.999999"/><rect id="rect4-9" width="4" height="3" x="8.5" y="9.5" style="fill: var(--background);stroke: var(--foreground);stroke-width:0.999999"/><rect id="rect4-9-2" width="4" height="3" x="8.5" y="12.5" style="fill: var(--background);stroke: var(--foreground);stroke-width:0.999999"/><rect id="rect4-3" width="4" height="3" x="8.5" y="6.5" style="fill: var(--background);stroke: var(--icon-accent);stroke-width:0.999999"/><path style="fill: none;fill-rule:evenodd;stroke: var(--foreground);stroke-width:1px;stroke-linecap:butt;stroke-linejoin:miter;stroke-opacity:1" d="M 6,2 V 5 H 8.5" id="path4"/></g></symbol>
<symbol id="listLength" viewBox="0 0 20 20"><defs id="defs1"/><g id="layer1"><rect id="rect4" width="4" height="3" x="6.5" y="3.5" style="fill: var(--background);stroke: var(--foreground);stroke-width:0.999999"/><rect id="rect4-9" width="4" height="3" x="6.5" y="9.5" style="fill: var(--background);stroke: var(--foreground);stroke-width:0.999999"/><rect id="rect4-9-2" width="4" height="3" x="6.5" y="12.5" style="fill: var(--background);stroke: var(--foreground);stroke-width:0.999999"/><rect id="rect4-3" width="4" height="3" x="6.5" y="6.5" style="fill: var(--background);stroke: var(--foreground);stroke-width:0.999999"/><path style="fill: none;fill-rule:evenodd;stroke: var(--foreground);stroke-width:1px;stroke-linecap:butt;stroke-linejoin:miter;stroke-opacity:1" d="M 4,2 V 5 H 6.5" id="path4"/><path style="color:#000000;fill: var(--icon-accent);fill-rule:evenodd;-inkscape-stroke:none" d="m 14.5,4 v 11 h 1 V 4 Z" id="path15"/><path style="color:#000000;fill: var(--icon-accent);fill-rule:evenodd;-inkscape-stroke:none" d="M 15,15.9425 13.75,13.78 h 2.5 z" id="path13"/><path style="color:#000000;fill: var(--icon-accent);fill-rule:evenodd;-inkscape-stroke:none" d="M 15,3.0575 16.25,5.22 h -2.5 z" id="path10"/></g></symbol>
<symbol id="mergeGroup" viewBox="0 0 20 20"><defs id="defs1"/><g id="layer1"><rect id="rect4" width="4" height="3" x="14.5" y="2.5" style="fill: var(--background);stroke: var(--icon-accent);stroke-width:0.999999"/><rect id="rect4-3" width="4" height="3" x="14.5" y="5.5" style="fill: var(--background);stroke: var(--icon-accent);stroke-width:0.999999"/><rect id="rect4-9" width="4" height="3" x="14.5" y="8.5" style="fill: var(--background);stroke: var(--icon-accent);stroke-width:0.999999"/><rect id="rect4-4" width="4" height="3" x="4.5" y="2.5" style="fill: var(--background);stroke: var(--foreground);stroke-width:0.999999"/><rect id="rect4-5" width="4" height="3" x="4.5" y="8" style="fill: var(--background);stroke: var(--foreground);stroke-width:0.999999"/><rect id="rect4-1" width="4" height="3" x="4.5" y="13.5" style="fill: var(--background);stroke: var(--foreground);stroke-width:0.999999"/><path style="fill: none;fill-rule:evenodd;stroke: var(--icon-accent);stroke-width:1px;stroke-linecap:butt;stroke-linejoin:miter;stroke-opacity:1" d="m 12,1 v 3 h 2.5" id="path4"/><path style="fill: none;fill-rule:evenodd;stroke: var(--foreground);stroke-width:1px;stroke-linecap:butt;stroke-linejoin:miter;stroke-opacity:1" d="M 2,1 V 4 H 4.5" id="path5"/><path style="fill: none;fill-rule:evenodd;stroke: var(--foreground);stroke-width:1px;stroke-linecap:butt;stroke-linejoin:miter;stroke-opacity:1" d="M 2,4 V 9.5 H 4.5" id="path6"/><path style="fill: none;fill-rule:evenodd;stroke: var(--foreground);stroke-width:1px;stroke-linecap:butt;stroke-linejoin:miter;stroke-opacity:1" d="M 2,9.5 V 15 h 2.5" id="path7"/></g></symbol>
<symbol id="midpoint" viewBox="0 0 20 20"><defs id="defs1"/><g id="layer1"><path d="M 4,16 16,4" id="path9" style="fill: #c0c0c0;stroke: var(--foreground)"/><circle id="circle9" cx="10" cy="10" r="1.5" style="fill: var(--background);stroke: var(--icon-accent)"/></g></symbol>
<symbol id="multiply" viewBox="0 0 20 20"><defs id="defs1"/><g id="layer1"><path style="font-size:7.83931px;font-family:&apos;Gill Sans&apos;;-inkscape-font-specification:Ubuntu;letter-spacing:0px;word-spacing:0px;fill: var(--foreground);stroke: none;stroke-width:0.999999px" d="m 3.6697763,11.474766 q 0.2586972,0 0.45468,-0.0078 0.2038221,-0.01568 0.3370903,-0.04704 v -1.215093 q -0.078393,-0.0392 -0.2586972,-0.06272 -0.1724648,-0.03136 -0.4233228,-0.03136 -0.1646255,0 -0.3527689,0.02352 -0.1803042,0.02352 -0.3370904,0.101911 -0.1489468,0.07055 -0.2508579,0.203822 -0.101911,0.125429 -0.101911,0.337091 0,0.391965 0.2508579,0.548751 0.2508579,0.148947 0.68202,0.148947 z M 3.6070618,7.8216477 q 0.4390014,0 0.7368952,0.1175896 0.3057331,0.1097504 0.4860372,0.3214117 0.1881434,0.2038221 0.2665365,0.4938766 0.078393,0.2822152 0.078393,0.6271448 v 2.5477756 q -0.094072,0.01568 -0.2665365,0.04704 Q 4.7437618,12 4.5321004,12.023518 q -0.2116614,0.02352 -0.4625193,0.0392 -0.2430186,0.02352 -0.4860372,0.02352 -0.3449297,0 -0.6349841,-0.07055 -0.2900545,-0.07055 -0.5017159,-0.219501 -0.2116614,-0.156786 -0.329251,-0.407644 -0.1175897,-0.250858 -0.1175897,-0.603627 0,-0.33709 0.1332683,-0.580109 Q 2.2743791,9.9617794 2.5095584,9.8128325 2.7447377,9.6638856 3.0583101,9.5933318 3.3718825,9.522778 3.7168122,9.522778 q 0.1097503,0 0.22734,0.015679 0.1175896,0.00784 0.2195006,0.031357 0.1097504,0.015679 0.1881435,0.031357 0.078393,0.015679 0.1097503,0.023518 V 9.420867 q 0,-0.1803042 -0.039197,-0.352769 Q 4.3831535,8.8877939 4.2812425,8.7545256 4.1793315,8.613418 3.9990273,8.5350249 q -0.1724648,-0.086232 -0.45468,-0.086232 -0.3606082,0 -0.6349841,0.054875 -0.2665365,0.047036 -0.3998048,0.101911 L 2.423326,8.0019518 q 0.1411076,-0.062715 0.4703586,-0.1175896 0.329251,-0.062715 0.7133772,-0.062715 z" id="path1"/><path style="font-size:7.83931px;font-family:&apos;Gill Sans&apos;;-inkscape-font-specification:&apos;Ubuntu Bold&apos;;letter-spacing:0px;word-spacing:0px;fill: var(--icon-accent);stroke: none;stroke-width:0.999999px" d="M 9.7530679,9.1308125 10.568356,7.8765229 H 11.77561 L 10.364534,9.8598683 Q 10.834893,10.447817 11.219019,11.004408 11.603145,11.560999 11.830485,12 h -1.25429 Q 10.513481,11.88241 10.419409,11.709946 10.325338,11.529641 10.207748,11.341498 10.090158,11.145515 9.95689,10.957372 9.831461,10.761389 9.706032,10.604603 9.5884424,10.75355 9.4630134,10.933854 9.3454238,11.114158 9.2356734,11.302301 9.1259231,11.482606 9.0161728,11.66291 8.9142617,11.843214 8.8358686,12 H 7.6442935 q 0.094072,-0.195983 0.2586972,-0.462519 0.1646255,-0.266537 0.352769,-0.548752 0.1959827,-0.290054 0.4076441,-0.57227 Q 8.8750652,10.126405 9.0788872,9.8755469 8.7261183,9.3816704 8.3733493,8.8799546 8.0205804,8.3703994 7.6756507,7.8765229 h 1.262129 z" id="path2"/><path style="font-size:7.83931px;font-family:&apos;Gill Sans&apos;;-inkscape-font-specification:Ubuntu;letter-spacing:0px;word-spacing:0px;fill: var(--foreground);stroke: none;stroke-width:0.999999px" d="m 15.075943,8.1038628 q 0.133268,-0.086232 0.399805,-0.1803041 0.274376,-0.094072 0.627145,-0.094072 0.439001,0 0.776091,0.1567862 0.34493,0.1567862 0.580109,0.4390014 0.23518,0.2822151 0.352769,0.6741806 0.125429,0.3919655 0.125429,0.8623242 0,0.4938769 -0.148947,0.8936819 -0.141107,0.391965 -0.407644,0.666341 -0.266536,0.274376 -0.642823,0.423323 -0.376287,0.148947 -0.846646,0.148947 -0.509555,0 -0.90152,-0.07055 -0.391966,-0.07055 -0.642824,-0.141108 V 6.0421243 l 0.729056,-0.125429 z m 0,3.2611532 q 0.10975,0.03136 0.305733,0.06271 0.203822,0.02352 0.501716,0.02352 0.587948,0 0.940717,-0.384126 0.352769,-0.391965 0.352769,-1.1053426 0,-0.3135725 -0.06271,-0.5879483 Q 17.051449,9.0994552 16.910342,8.9034725 16.769234,8.6996504 16.541894,8.5899001 16.322393,8.4723104 16.008821,8.4723104 q -0.297894,0 -0.548752,0.1019111 -0.250858,0.101911 -0.384126,0.2116613 z" id="path3"/></g></symbol>
<symbol id="outline" viewBox="0 0 20 20"><defs id="defs1"/><g id="layer1"><path d="m 7,6 6,-3 4,7 -6,7 -8,-4 z" id="path27" style="fill: var(--background);stroke: var(--foreground)"/><path style="fill: none;stroke: var(--icon-accent)" d="m 13.283203,1.0195312 a 2,2 0 0 0 -1.177734,0.1914063 l -6.0000003,3 a 2,2 0 0 0 -0.8417968,0.796875 l -4,7.0000005 a 2,2 0 0 0 0.8417969,2.78125 l 8.0000002,3.999999 a 2,2 0 0 0 2.412109,-0.488281 l 6,-7 a 2,2 0 0 0 0.21875,-2.2929685 l -4,-7 A 2,2 0 0 0 13.283203,1.0195312 Z" id="path28"/></g></symbol>
<symbol id="point" viewBox="0 0 20 20"><defs id="defs1"/><g id="layer1"><path d="m 7,7 6,6" id="path1" style="fill: #c0c0c0;stroke: var(--icon-accent)"/><path d="M 7,13 13,7" id="path4" style="fill: #c0c0c0;stroke: var(--icon-accent)"/></g></symbol>
<symbol id="pointsFromPoly" viewBox="0 0 20 20"><defs id="defs1"/><g id="layer1"><path d="m 3,13 4,-7 6,-3 4,7 -6,7 z" id="path30" style="fill: var(--background);stroke: var(--foreground)"/><circle id="circle30" cx="13" cy="3" r="1.5" style="fill: var(--background);stroke: var(--icon-accent)"/><circle id="circle31" cx="17" cy="10" r="1.5" style="fill: var(--background);stroke: var(--icon-accent)"/><circle id="circle32" cx="11" cy="17" r="1.5" style="fill: var(--background);stroke: var(--icon-accent)"/><circle id="circle33" cx="3" cy="13" r="1.5" style="fill: var(--background);stroke: var(--icon-accent)"/><circle id="circle34" cx="7" cy="6" r="1.5" style="fill: var(--background);stroke: var(--icon-accent)"/></g></symbol>
<symbol id="polyFromPoints" viewBox="0 0 20 20"><defs id="defs1"/><g id="layer1"><circle id="circle30" cx="13" cy="3" r="1.5" style="fill: var(--background);stroke: var(--foreground)"/><circle id="circle31" cx="17" cy="10" r="1.5" style="fill: var(--background);stroke: var(--foreground)"/><circle id="circle32" cx="11" cy="17" r="1.5" style="fill: var(--background);stroke: var(--foreground)"/><circle id="circle33" cx="3" cy="13" r="1.5" style="fill: var(--background);stroke: var(--foreground)"/><circle id="circle34" cx="7" cy="6" r="1.5" style="fill: var(--background);stroke: var(--foreground)"/><path d="m 3,13 4,-7 6,-3 4,7 -6,7 z" id="path30" style="fill: var(--background);stroke: var(--icon-accent)"/></g></symbol>
<symbol id="polygon" viewBox="0 0 20 20"><defs id="defs1"/><g id="layer1"><path id="path8" d="m 17.5,10 c 0,-0.00322 -3.75279,6.496802 -3.75,6.495191 0.0028,-0.0016 -7.5027904,-0.0016 -7.5,0 C 6.2527904,16.496802 2.5,9.9967779 2.5,10 c 0,0.0032 3.7527904,-6.4968016 3.75,-6.4951905 -0.00279,0.00161 7.50279,0.00161 7.5,0 C 13.74721,3.5031984 17.5,10.003222 17.5,10 Z" style="fill: var(--background);stroke: var(--icon-accent)"/><circle id="path1" cx="10" cy="10" r="1.5" style="fill: var(--background);stroke: var(--foreground);stroke-width:1"/></g></symbol>
<symbol id="rectGrid" viewBox="0 0 20 20"><defs id="defs1"/><g id="layer1"><rect id="rect1" width="16" height="16" x="2" y="2" style="stroke: var(--icon-accent);fill: var(--background)"/><path style="fill: none;fill-rule:evenodd;stroke: var(--icon-accent);stroke-width:1px;stroke-linecap:butt;stroke-linejoin:miter;stroke-opacity:1" d="M 2,10 H 18" id="path1"/><path style="fill: none;fill-rule:evenodd;stroke: var(--icon-accent);stroke-width:1px;stroke-linecap:butt;stroke-linejoin:miter;stroke-opacity:1" d="M 10,2 V 18" id="path2"/></g></symbol>
<symbol id="segmentsFromPoly" viewBox="0 0 20 20"><defs id="defs1"/><g id="layer1"><path d="m 3,13 4,-7 6,-3 4,7 -6,7 z" id="path30" style="fill: var(--background);stroke: var(--icon-accent)"/><circle id="circle30" cx="13" cy="3" r="1.5" style="fill: var(--background);stroke: var(--foreground)"/><circle id="circle31" cx="17" cy="10" r="1.5" style="fill: var(--background);stroke: var(--foreground)"/><circle id="circle32" cx="11" cy="17" r="1.5" style="fill: var(--background);stroke: var(--foreground)"/><circle id="circle33" cx="3" cy="13" r="1.5" style="fill: var(--background);stroke: var(--foreground)"/><circle id="circle34" cx="7" cy="6" r="1.5" style="fill: var(--background);stroke: var(--foreground)"/></g></symbol>
<symbol id="series" viewBox="0 0 20 20"><defs id="defs1"/><g id="layer1"><path style="-inkscape-font-specification:Ubuntu;fill: var(--icon-accent);stroke-width:0.999999px" d="M 2.1685515,7.6883794 Q 2.6153922,7.5159146 3.0387149,7.249378 3.4620377,6.9750022 3.8148066,6.5673581 H 4.3322011 V 12 H 3.6031453 V 7.5786291 Q 3.5090735,7.6648615 3.367966,7.7589332 3.2346977,7.8530049 3.0700722,7.9392373 2.913286,8.0254697 2.7329818,8.1038628 2.560517,8.1822559 2.3958915,8.2371311 Z m 5.1817774,3.8882976 q 0,0.211662 -0.1411076,0.368448 -0.1411076,0.156786 -0.3841262,0.156786 -0.2430186,0 -0.3841262,-0.156786 -0.1411076,-0.156786 -0.1411076,-0.368448 0,-0.211661 0.1411076,-0.368447 0.1411076,-0.156787 0.3841262,-0.156787 0.2430186,0 0.3841262,0.156787 0.1411076,0.156786 0.1411076,0.368447 z m 1.9284577,0 q 0,0.211662 -0.1411075,0.368448 -0.1411076,0.156786 -0.3841262,0.156786 -0.2430187,0 -0.3841262,-0.156786 -0.1411076,-0.156786 -0.1411076,-0.368448 0,-0.211661 0.1411076,-0.368447 0.1411075,-0.156787 0.3841262,-0.156787 0.2430186,0 0.3841262,0.156787 0.1411075,0.156786 0.1411075,0.368447 z M 10.446831,7.6883794 Q 10.893671,7.5159146 11.316994,7.249378 11.740317,6.9750022 12.093086,6.5673581 H 12.61048 V 12 H 11.881425 V 7.5786291 q -0.09407,0.086232 -0.23518,0.1803041 -0.133268,0.094072 -0.297894,0.1803041 -0.156786,0.086232 -0.33709,0.1646255 -0.172465,0.078393 -0.33709,0.1332683 z m 4.084274,1.59138 q 0,-1.36404 0.478198,-2.1009352 0.486037,-0.7368951 1.340522,-0.7368951 0.854485,0 1.332683,0.7368951 0.486037,0.7368952 0.486037,2.1009352 0,1.3640396 -0.486037,2.1009346 -0.478198,0.736896 -1.332683,0.736896 -0.854485,0 -1.340522,-0.736896 -0.478198,-0.736895 -0.478198,-2.1009346 z m 2.869188,0 q 0,-0.4468407 -0.05488,-0.8466455 -0.04704,-0.3998048 -0.172465,-0.6976986 -0.11759,-0.2978938 -0.321412,-0.4703586 -0.203822,-0.1803042 -0.501716,-0.1803042 -0.297894,0 -0.501716,0.1803042 -0.203822,0.1724648 -0.329251,0.4703586 -0.117589,0.2978938 -0.172464,0.6976986 -0.04704,0.3998048 -0.04704,0.8466455 0,0.4468407 0.04704,0.8466456 0.05487,0.399805 0.172464,0.697698 0.125429,0.297894 0.329251,0.478198 0.203822,0.172465 0.501716,0.172465 0.297894,0 0.501716,-0.172465 0.203822,-0.180304 0.321412,-0.478198 0.125429,-0.297893 0.172465,-0.697698 0.05488,-0.3998049 0.05488,-0.8466456 z" id="text15" aria-label="1..10"/></g></symbol>
<symbol id="shiftList" viewBox="0 0 20 20"><defs id="defs1"/><g id="layer1"><path style="fill: none;fill-rule:evenodd;stroke: var(--foreground);stroke-width:1px;stroke-linecap:butt;stroke-linejoin:miter;stroke-opacity:1" d="M 4,2 V 5 H 6.5" id="path4"/><rect id="rect4" width="4" height="3" x="6.5" y="3.5" style="fill: var(--background);stroke: var(--foreground);stroke-width:0.999999"/><rect id="rect4-9" width="4" height="3" x="6.5" y="9.5" style="fill: var(--background);stroke: var(--icon-accent);stroke-width:0.999999"/><rect id="rect4-9-2" width="4" height="3" x="6.5" y="12.5" style="fill: var(--background);stroke: var(--icon-accent);stroke-width:1;stroke-dasharray:none"/><rect id="rect4-3" width="4" height="3" x="6.5" y="6.5" style="fill: var(--background);stroke: var(--icon-accent);stroke-width:1;stroke-dasharray:none"/><g id="g15" transform="translate(2.75,5.0575)"><path style="color:#000000;fill: var(--icon-accent);fill-rule:evenodd;-inkscape-stroke:none" d="m 11.75,-1.0575 v 12 h 1 v -12 z" id="path15"/><path style="color:#000000;fill: var(--icon-accent);fill-rule:evenodd;-inkscape-stroke:none" d="M 12.25,-2 13.5,0.1625 H 11 Z" id="path10"/></g></g></symbol>
<symbol id="splitGroup" viewBox="0 0 20 20"><defs id="defs1"/><g id="layer1"><rect id="rect4" width="4" height="3" x="4.5" y="2.5" style="fill: var(--background);stroke: var(--foreground);stroke-width:0.999999"/><rect id="rect4-3" width="4" height="3" x="4.5" y="5.5" style="fill: var(--background);stroke: var(--foreground);stroke-width:0.999999"/><rect id="rect4-9" width="4" height="3" x="4.5" y="8.5" style="fill: var(--background);stroke: var(--foreground);stroke-width:0.999999"/><rect id="rect4-4" width="4" height="3" x="14.5" y="2.5" style="fill: var(--background);stroke: var(--icon-accent);stroke-width:0.999999"/><rect id="rect4-5" width="4" height="3" x="14.5" y="8" style="fill: var(--background);stroke: var(--icon-accent);stroke-width:0.999999"/><rect id="rect4-1" width="4" height="3" x="14.5" y="13.5" style="fill: var(--background);stroke: var(--icon-accent);stroke-width:0.999999"/><path style="fill: none;fill-rule:evenodd;stroke: var(--foreground);stroke-width:1px;stroke-linecap:butt;stroke-linejoin:miter;stroke-opacity:1" d="M 2,1 V 4 H 4.5" id="path4"/><path style="fill: none;fill-rule:evenodd;stroke: var(--icon-accent);stroke-width:1px;stroke-linecap:butt;stroke-linejoin:miter;stroke-opacity:1" d="m 12,1 v 3 h 2.5" id="path5"/><path style="fill: none;fill-rule:evenodd;stroke: var(--icon-accent);stroke-width:1px;stroke-linecap:butt;stroke-linejoin:miter;stroke-opacity:1" d="m 12,4 v 5.5 h 2.5" id="path6"/><path style="fill: none;fill-rule:evenodd;stroke: var(--icon-accent);stroke-width:1px;stroke-linecap:butt;stroke-linejoin:miter;stroke-opacity:1" d="M 12,9.5 V 15 h 2.5" id="path7"/></g></symbol>
<symbol id="subdivideCurve" viewBox="0 0 20 20"><defs id="defs1"/><g id="layer1"><path d="M 4,16 16,4" id="path9" style="fill: #c0c0c0;stroke: var(--foreground)"/><circle id="circle9" cx="4" cy="16" r="1.5" style="fill: var(--background);stroke: var(--icon-accent)"/><circle id="circle9-1" cx="16" cy="4" r="1.5" style="fill: var(--background);stroke: var(--icon-accent)"/><circle id="circle9-1-8" cx="12" cy="8" r="1.5" style="fill: var(--background);stroke: var(--icon-accent)"/><circle id="circle9-1-80" cx="8" cy="12" r="1.5" style="fill: var(--background);stroke: var(--icon-accent)"/></g></symbol>
<symbol id="subtract" viewBox="0 0 20 20"><defs id="defs1"/><g id="layer1"><path style="font-size:7.83931px;font-family:&apos;Gill Sans&apos;;-inkscape-font-specification:Ubuntu;letter-spacing:0px;word-spacing:0px;fill: var(--foreground);stroke: none;stroke-width:0.999999px" d="m 4.5085852,11.474766 q 0.2586973,0 0.45468,-0.0078 0.2038221,-0.01568 0.3370904,-0.04704 v -1.215093 q -0.078393,-0.0392 -0.2586973,-0.06272 -0.1724648,-0.03136 -0.4233227,-0.03136 -0.1646255,0 -0.352769,0.02352 -0.1803041,0.02352 -0.3370903,0.101911 -0.1489469,0.07055 -0.2508579,0.203822 -0.1019111,0.125429 -0.1019111,0.337091 0,0.391965 0.250858,0.548751 0.2508579,0.148947 0.6820199,0.148947 z M 4.4458708,7.8216477 q 0.4390013,0 0.7368951,0.1175896 0.3057331,0.1097504 0.4860372,0.3214117 0.1881435,0.2038221 0.2665366,0.4938766 0.078393,0.2822152 0.078393,0.6271448 v 2.5477756 q -0.094072,0.01568 -0.2665366,0.04704 Q 5.5825707,12 5.3709094,12.023518 q -0.2116614,0.02352 -0.4625193,0.0392 -0.2430187,0.02352 -0.4860373,0.02352 -0.3449296,0 -0.6349841,-0.07055 -0.2900545,-0.07055 -0.5017159,-0.219501 -0.2116613,-0.156786 -0.329251,-0.407644 -0.1175896,-0.250858 -0.1175896,-0.603627 0,-0.33709 0.1332682,-0.580109 Q 3.113188,9.9617794 3.3483673,9.8128325 3.5835466,9.6638856 3.897119,9.5933318 4.2106914,9.522778 4.5556211,9.522778 q 0.1097503,0 0.22734,0.015679 0.1175896,0.00784 0.2195007,0.031357 0.1097503,0.015679 0.1881434,0.031357 0.078393,0.015679 0.1097504,0.023518 V 9.420867 q 0,-0.1803042 -0.039197,-0.352769 Q 5.2219625,8.8877939 5.1200514,8.7545256 5.0181404,8.613418 4.8378363,8.5350249 q -0.1724649,-0.086232 -0.45468,-0.086232 -0.3606083,0 -0.6349842,0.054875 -0.2665365,0.047036 -0.3998048,0.101911 L 3.2621349,8.0019518 Q 3.4032425,7.9392373 3.7324935,7.8843622 4.0617446,7.8216477 4.4458708,7.8216477 Z" id="path1"/><path style="font-size:7.83931px;font-family:&apos;Gill Sans&apos;;-inkscape-font-specification:&apos;Ubuntu Bold&apos;;letter-spacing:0px;word-spacing:0px;fill: var(--icon-accent);stroke: none;stroke-width:0.999999px" d="M 8.6006921,9.1308125 H 10.874092 V 10.189119 H 8.6006921 Z" id="path2"/><path style="font-size:7.83931px;font-family:&apos;Gill Sans&apos;;-inkscape-font-specification:Ubuntu;letter-spacing:0px;word-spacing:0px;fill: var(--foreground);stroke: none;stroke-width:0.999999px" d="m 14.237135,8.1038628 q 0.133268,-0.086232 0.399805,-0.1803041 0.274376,-0.094072 0.627145,-0.094072 0.439001,0 0.776091,0.1567862 0.34493,0.1567862 0.580109,0.4390014 0.235179,0.2822151 0.352769,0.6741806 0.125429,0.3919655 0.125429,0.8623242 0,0.4938769 -0.148947,0.8936819 -0.141107,0.391965 -0.407644,0.666341 -0.266536,0.274376 -0.642823,0.423323 -0.376287,0.148947 -0.846646,0.148947 -0.509555,0 -0.901521,-0.07055 -0.391965,-0.07055 -0.642823,-0.141108 V 6.0421243 l 0.729056,-0.125429 z m 0,3.2611532 q 0.10975,0.03136 0.305733,0.06271 0.203822,0.02352 0.501716,0.02352 0.587948,0 0.940717,-0.384126 0.352769,-0.391965 0.352769,-1.1053426 0,-0.3135725 -0.06271,-0.5879483 Q 16.212641,9.0994552 16.071533,8.9034725 15.930426,8.6996504 15.703086,8.5899001 15.483585,8.4723104 15.170013,8.4723104 q -0.297894,0 -0.548752,0.1019111 -0.250858,0.101911 -0.384126,0.2116613 z" id="path3"/></g></symbol>
<symbol id="triGrid" viewBox="0 0 20 20"><defs id="defs1"/><g id="layer1"><path style="color:#000000;fill: var(--background);fill-rule:evenodd;stroke-linecap:round;stroke-linejoin:round;-inkscape-stroke:none" d="M 10,18 2,2 h 16 l -8,16" id="path4"/><path style="fill: var(--background);fill-rule:evenodd;stroke: var(--icon-accent);stroke-width:1px;stroke-linecap:round;stroke-linejoin:round;stroke-opacity:1" d="M 2,18 10,2 18,18 Z" id="path1"/><path style="color:#000000;fill: var(--icon-accent);fill-rule:evenodd;stroke-linecap:round;stroke-linejoin:round;-inkscape-stroke:none" d="M 2,1.5 A 0.50005,0.50005 0 0 0 1.5527344,2.2226563 l 8,15.9999997 a 0.5,0.5 0 0 0 0.1679687,0.05664 0.5,0.5 0 0 0 0.056641,0.167969 A 0.5,0.5 0 0 0 10,18.373047 a 0.5,0.5 0 0 0 0.222656,0.07422 0.5,0.5 0 0 0 0.212891,-0.220704 0.5,0.5 0 0 0 0.01172,-0.0039 l 8,-15.9999997 A 0.50005,0.50005 0 0 0 18,1.5 Z m 0.8085938,1 H 17.191406 L 10,16.882812 Z" id="path5"/><path style="fill: var(--background);fill-rule:evenodd;stroke: var(--icon-accent);stroke-width:1px;stroke-linecap:round;stroke-linejoin:round;stroke-opacity:1" d="M 2,10 H 18" id="path3"/></g></symbol>
<symbol id="truncatedSquareGrid" viewBox="0 0 20 20"><defs id="defs1"/><g id="layer1"><path id="path5" d="m 10,15.701607 -2.3374418,2.335421 -3.3042132,-0.0014 -2.3354211,-2.337442 0.00143,-3.304213 2.337442,-2.335421 3.3042132,0.0014 2.3354209,2.337442 z" style="fill: var(--background);stroke: var(--icon-accent)" transform="translate(-0.00142917,-0.05852262)"/><path id="path5-2" d="m 10,15.701607 -2.3374418,2.335421 -3.3042132,-0.0014 -2.3354211,-2.337442 0.00143,-3.304213 2.337442,-2.335421 3.3042132,0.0014 2.3354209,2.337442 z" style="fill: var(--background);stroke: var(--icon-accent)" transform="translate(0.00202074,-8.0355989)"/><path id="path5-7" d="m 10,15.701607 -2.3374418,2.335421 -3.3042132,-0.0014 -2.3354211,-2.337442 0.00143,-3.304213 2.337442,-2.335421 3.3042132,0.0014 2.3354209,2.337442 z" style="fill: var(--background);stroke: var(--icon-accent)" transform="translate(7.9756471,-0.05507271)"/><path id="path5-28" d="m 10,15.701607 -2.3374418,2.335421 -3.3042132,-0.0014 -2.3354211,-2.337442 0.00143,-3.304213 2.337442,-2.335421 3.3042132,0.0014 2.3354209,2.337442 z" style="fill: var(--background);stroke: var(--icon-accent)" transform="translate(7.9770761,-8.0301298)"/><path style="fill: var(--background);fill-rule:evenodd;stroke: var(--icon-accent);stroke-width:1px;stroke-linecap:butt;stroke-linejoin:miter;stroke-opacity:1" d="M 10,7.6680271 12.329957,10 10,12.338871 7.6660092,10 Z" id="path6"/></g></symbol>
</svg>
