<?xml version="1.0" encoding="UTF-8" standalone="no"?>
<!-- Created with Inkscape (http://www.inkscape.org/) -->

<svg
   version="1.1"
   id="svg1"
   inkscape:version="1.3.2 (1:1.3.2+202311252150+091e20ef0f)"
   sodipodi:docname="symbols.svg"
   xmlns:inkscape="http://www.inkscape.org/namespaces/inkscape"
   xmlns:sodipodi="http://sodipodi.sourceforge.net/DTD/sodipodi-0.dtd"
   xmlns:xlink="http://www.w3.org/1999/xlink"
   xmlns="http://www.w3.org/2000/svg"
   xmlns:svg="http://www.w3.org/2000/svg">
   <sodipodi:namedview
      id="namedview1"
      pagecolor="#ffffff"
      bordercolor="#666666"
      borderopacity="1.0"
      inkscape:showpageshadow="2"
      inkscape:pageopacity="0.0"
      inkscape:pagecheckerboard="0"
      inkscape:deskcolor="#d1d1d1"
      inkscape:document-units="px"
      showgrid="true"
      inkscape:zoom="33.524578"
      inkscape:cx="14.601228"
      inkscape:cy="12.736924"
      inkscape:window-width="2560"
      inkscape:window-height="1376"
      inkscape:window-x="0"
      inkscape:window-y="27"
      inkscape:window-maximized="1"
      inkscape:current-layer="layer1"
      showguides="true">
      <inkscape:grid
         id="grid1"
         units="px"
         originx="0"
         originy="0"
         spacingx="0.5"
         spacingy="0.5"
         empcolor="#3f3fff"
         empopacity="0.25098039"
         color="#3f3fff"
         opacity="0.1254902"
         empspacing="2"
         dotted="false"
         gridanglex="30"
         gridanglez="30"
         visible="true" />
      <sodipodi:guide
         position="-0.5,10"
         orientation="0,-1"
         id="guide1"
         inkscape:locked="false" />
      <sodipodi:guide
         position="10,21"
         orientation="1,0"
         id="guide2"
         inkscape:locked="false" />
      <sodipodi:guide
         position="-1.5,129.5"
         orientation="0,-1"
         id="guide3"
         inkscape:locked="false" />
      <sodipodi:guide
         position="20,155.5"
         orientation="1,0"
         id="guide4"
         inkscape:locked="false" />
   </sodipodi:namedview>
   <defs
      id="defs1">
      <inkscape:path-effect
         effect="offset"
         id="path-effect19"
         is_visible="true"
         lpeversion="1.2"
         linejoin_type="round"
         unit="px"
         offset="2"
         miter_limit="4"
         attempt_force_join="false"
         update_on_knot_move="true" />
      <symbol
         id="point"
         viewBox="0 0 20 20">
         <path
            style="stroke:var(--icon-accent)"
            d="m 7,7 6,6"
            id="path2" />
         <path
            style="stroke:var(--icon-accent)"
            d="M 7,13 13,7"
            id="path3" />
      </symbol>
      <symbol
         id="circle"
         viewBox="0 0 20 20">
         <circle
            cx="10"
            cy="10"
            r="7.5"
            style="stroke:var(--icon-accent)"
            id="circle1" />
         <circle
            cx="10"
            cy="10"
            r="1.5"
            id="circle2" />
      </symbol>
      <symbol
         id="line"
         viewBox="0 0 20 20">
         <path
            d="M 4.0000001,16 16.000001,4.0000001"
            style="stroke:var(--icon-accent)"
            id="path4" />
         <circle
            cx="4"
            cy="16"
            r="1.5"
            id="circle4" />
         <circle
            cx="16"
            cy="4"
            r="1.5"
            id="circle5" />
      </symbol>
      <symbol
         id="arc"
         viewBox="0 0 20 20">
         <path
            d="M 5.035652,15.621855 A 7.5,7.5 0 0 1 2.8306252,7.7977137 7.5,7.5 0 0 1 9.0477751,2.5606944 7.5,7.5 0 0 1 16.383545,6.0629513"
            style="stroke:var(--icon-accent); fill:none"
            id="path5" />
         <circle
            cx="10"
            cy="10"
            r="1.5"
            id="circle6" />
      </symbol>
      <symbol
         id="polygon"
         viewBox="0 0 20 20">
         <path
            style="stroke:var(--icon-accent)"
            id="path7"
            d="m 17.5,10 c 0,-0.00322 -3.75279,6.496802 -3.75,6.495191 0.0028,-0.0016 -7.5027904,-0.0016 -7.5,0 C 6.2527904,16.496802 2.5,9.9967779 2.5,10 c 0,0.0032 3.7527904,-6.4968016 3.75,-6.4951905 -0.00279,0.00161 7.50279,0.00161 7.5,0 C 13.74721,3.5031984 17.5,10.003222 17.5,10 Z" />
      </symbol>
      <symbol
         id="midpoint"
         viewBox="0 0 20 20">
         <path
            d="M 4,16 16,4"
            id="path6" />
         <circle
            style="stroke:var(--icon-accent)"
            id="path8"
            cx="10"
            cy="10"
            r="1.5" />
      </symbol>
      <symbol
         id="evaluateCurve"
         viewBox="0 0 20 20">
         <path
            d="M 1.5,14.5 14.5,1.5"
            id="path1" />
         <circle
            style="stroke:var(--icon-accent)"
            id="path9"
            cx="8"
            cy="8"
            r="1.5" />
         <g
            id="path10"
            style="stroke: none; fill: var(--icon-accent)">
            <path
               d="M 16.646484,7.6464844 7.6464844,16.646484 8.3535156,17.353516 17.353516,8.3535156 Z"
               id="path18" />
            <g
               id="g12">
               <g
                  id="path15">
                  <path
                     d="M 18.020002,6.9799985 17.374767,9.3930004 15.607,7.6252334 Z"
                     id="path16" />
                  <path
                     d="m 18.255859,6.7441406 -2.970703,0.7949219 2.175781,2.1757813 z M 17.785156,7.2148437 17.287109,9.0703125 15.929688,7.7128906 Z"
                     id="path17" />
               </g>
               <g
                  id="path12">
                  <path
                     d="M 6.9799985,18.020002 7.6252334,15.607 l 1.767767,1.767767 z"
                     id="path13" />
                  <path
                     d="m 7.5390625,15.285156 -0.7949219,2.970703 2.9707032,-0.794922 z m 0.1738281,0.644532 1.3574219,1.357421 -1.8554688,0.498047 z"
                     id="path14" />
               </g>
            </g>
         </g>
      </symbol>
      <symbol
         id="center"
         viewBox="0 0 20 20">
         <path
            d="m 3,13.5 4,-7 6,-3 4,7 -6,7 z"
            id="path20" />
         <circle
            id="path21"
            style="stroke:var(--icon-accent)"
            cx="10.5"
            cy="10.5"
            r="1.5" />
      </symbol>
      <symbol
         id="outline"
         viewBox="0 0 20 20">
         <path
            d="m 7,6.5 6,-3 4,7 -6,7 -8,-4 z"
            id="path11"
            sodipodi:nodetypes="cccccc" />
         <path
            style="stroke:var(--icon-accent); fill: none"
            d="m 13.283203,1.5195312 a 2,2 0 0 0 -1.177734,0.1914063 l -6.0000003,3 a 2,2 0 0 0 -0.8417968,0.796875 l -4,7.0000005 a 2,2 0 0 0 0.8417969,2.78125 l 8.0000002,3.999999 a 2,2 0 0 0 2.412109,-0.488281 l 6,-7 a 2,2 0 0 0 0.21875,-2.2929685 l -4,-7 A 2,2 0 0 0 13.283203,1.5195312 Z"
            id="path19" />
      </symbol>
      <symbol
         id="pointsFromPoly"
         viewBox="0 0 20 20">
         <path
            d="m 3,13.5 4,-7 6,-3 4,7 -6,7 z"
            id="path22" />
         <circle
            id="path23"
            style="stroke:var(--icon-accent)"
            cx="13"
            cy="3.5"
            r="1.5" />
         <circle
            id="path23-8"
            style="stroke:var(--icon-accent)"
            cx="17"
            cy="10.5"
            r="1.5" />
         <circle
            id="path23-4"
            style="stroke:var(--icon-accent)"
            cx="11"
            cy="17.5"
            r="1.5" />
         <circle
            id="path23-9"
            style="stroke:var(--icon-accent)"
            cx="3"
            cy="13.5"
            r="1.5" />
         <circle
            id="path23-89"
            style="stroke:var(--icon-accent)"
            cx="7"
            cy="6.5"
            r="1.5" />
      </symbol>
      <symbol
         id="segmentsFromPoly"
         viewBox="0 0 20 20">
         <path
            d="m 3,13.5 4,-7 6,-3 4,7 -6,7 z"
            style="stroke:var(--icon-accent)"
            id="path22" />
         <circle
            id="path23"
            cx="13"
            cy="3.5"
            r="1.5" />
         <circle
            id="path23-8"
            cx="17"
            cy="10.5"
            r="1.5" />
         <circle
            id="path23-4"
            cx="11"
            cy="17.5"
            r="1.5" />
         <circle
            id="path23-9"
            cx="3"
            cy="13.5"
            r="1.5" />
         <circle
            id="path23-89"
            cx="7"
            cy="6.5"
            r="1.5" />
      </symbol>
   </defs>
   <g
      inkscape:groupmode="layer"
      id="layer1"
      inkscape:label="Layer 1"
      style="stroke: red; fill: silver; --icon-accent: blue">
      <use
         xlink:href="#point"
         width="20"
         height="20"
         id="use1"
         transform="translate(20,0)" />
      <use
         xlink:href="#line"
         width="20"
         height="20"
         id="use1-7"
         transform="translate(40,0)" />
      <use
         xlink:href="#circle"
         width="20"
         height="20"
         id="use1-75"
         transform="translate(60,0)" />
      <use
         xlink:href="#arc"
         width="20"
         height="20"
         id="use1-73"
         transform="translate(80,0)" />
      <use
         xlink:href="#polygon"
         width="20"
         height="20"
         id="use1-3"
         transform="translate(100,0)" />
      <use
         xlink:href="#midpoint"
         width="20"
         height="20"
         id="use1-4"
         transform="translate(120,0)" />
      <use
         xlink:href="#evaluateCurve"
         width="20"
         height="20"
         id="use1-47"
         transform="translate(140,0)" />
      <use
         xlink:href="#center"
         width="20"
         height="20"
         id="use21"
         transform="translate(160,0)" />
      <use
         xlink:href="#outline"
         id="use19"
         width="20"
         height="20"
         transform="translate(180,0)" />
      <use
         xlink:href="#pointsFromPoly"
         width="20"
         height="20"
         id="use23"
         transform="translate(200,0)" />
      <use
         xlink:href="#segmentsFromPoly"
         width="20"
         height="20"
         id="use24" />
   </g>
</svg>
