<?xml version="1.0" encoding="UTF-8" standalone="no"?>
<!-- Created with Inkscape (http://www.inkscape.org/) -->

<svg
   width="20"
   height="20"
   viewBox="0 0 20 20"
   version="1.1"
   id="svg1"
   inkscape:version="1.3.2 (1:1.3.2+202311252150+091e20ef0f)"
   sodipodi:docname="divide.svg"
   xmlns:inkscape="http://www.inkscape.org/namespaces/inkscape"
   xmlns:sodipodi="http://sodipodi.sourceforge.net/DTD/sodipodi-0.dtd"
   xmlns="http://www.w3.org/2000/svg"
   xmlns:svg="http://www.w3.org/2000/svg">
  <sodipodi:namedview
     id="namedview1"
     pagecolor="#ffffff"
     bordercolor="#666666"
     borderopacity="1.0"
     inkscape:showpageshadow="2"
     inkscape:pageopacity="0.0"
     inkscape:pagecheckerboard="0"
     inkscape:deskcolor="#d1d1d1"
     inkscape:document-units="px"
     showgrid="true"
     showguides="true"
     inkscape:zoom="32"
     inkscape:cx="12.921875"
     inkscape:cy="12.453125"
     inkscape:window-width="1452"
     inkscape:window-height="1237"
     inkscape:window-x="2634"
     inkscape:window-y="17"
     inkscape:window-maximized="0"
     inkscape:current-layer="layer1">
    <inkscape:grid
       id="grid1"
       units="px"
       originx="0"
       originy="0"
       spacingx="0.5"
       spacingy="0.5"
       empcolor="#3f3fff"
       empopacity="0.25098039"
       color="#3f3fff"
       opacity="0.1254902"
       empspacing="2"
       dotted="false"
       gridanglex="30"
       gridanglez="30"
       visible="true" />
    <sodipodi:guide
       position="-1,10"
       orientation="0,-1"
       id="guide1"
       inkscape:locked="false" />
    <sodipodi:guide
       position="10,21"
       orientation="1,0"
       id="guide2"
       inkscape:locked="false" />
    <sodipodi:guide
       position="2,20.5"
       orientation="1,0"
       id="guide3"
       inkscape:locked="false" />
    <sodipodi:guide
       position="18,20.5"
       orientation="1,0"
       id="guide4"
       inkscape:locked="false" />
    <sodipodi:guide
       position="-1,18"
       orientation="0,-1"
       id="guide5"
       inkscape:locked="false" />
    <sodipodi:guide
       position="-1.5,2"
       orientation="0,-1"
       id="guide6"
       inkscape:locked="false" />
  </sodipodi:namedview>
  <defs
     id="defs1" />
  <g
     inkscape:label="Layer 1"
     inkscape:groupmode="layer"
     id="layer1">
    <path
       style="font-size:7.83931px;font-family:'Gill Sans';-inkscape-font-specification:Ubuntu;letter-spacing:0px;word-spacing:0px;fill:#000000;stroke:none;stroke-width:0.999999px"
       d="m 4.1283782,11.474766 q 0.2586973,0 0.45468,-0.0078 0.2038221,-0.01568 0.3370903,-0.04704 v -1.215093 q -0.078393,-0.0392 -0.2586972,-0.06272 -0.1724648,-0.03136 -0.4233227,-0.03136 -0.1646256,0 -0.352769,0.02352 -0.1803041,0.02352 -0.3370903,0.101911 -0.1489469,0.07055 -0.250858,0.203822 -0.101911,0.125429 -0.101911,0.337091 0,0.391965 0.2508579,0.548751 0.250858,0.148947 0.68202,0.148947 z M 4.0656637,7.8216477 q 0.4390014,0 0.7368952,0.1175896 0.3057331,0.1097504 0.4860372,0.3214117 0.1881435,0.2038221 0.2665366,0.4938766 0.078393,0.2822152 0.078393,0.6271448 V 11.929446 Q 5.539454,11.945125 5.3669892,11.976482 5.2023637,12 4.9907023,12.023518 q -0.2116613,0.02352 -0.4625193,0.0392 -0.2430186,0.02352 -0.4860372,0.02352 -0.3449296,0 -0.6349841,-0.07055 -0.2900545,-0.07055 -0.5017159,-0.219501 -0.2116613,-0.156786 -0.329251,-0.407644 -0.1175897,-0.250858 -0.1175897,-0.603627 0,-0.33709 0.1332683,-0.580109 Q 2.732981,9.9617794 2.9681603,9.8128325 3.2033396,9.6638856 3.516912,9.5933318 3.8304844,9.522778 4.1754141,9.522778 q 0.1097503,0 0.22734,0.015679 0.1175896,0.00784 0.2195007,0.031357 0.1097503,0.015679 0.1881434,0.031357 0.078393,0.015679 0.1097503,0.023518 V 9.420867 q 0,-0.1803042 -0.039197,-0.352769 Q 4.8417554,8.8877939 4.7398444,8.7545256 4.6379334,8.613418 4.4576292,8.5350249 4.2851644,8.4487925 4.0029493,8.4487925 q -0.3606083,0 -0.6349842,0.054875 -0.2665365,0.047036 -0.3998048,0.101911 L 2.8819279,8.0019518 q 0.1411076,-0.062715 0.4703586,-0.1175896 0.329251,-0.062715 0.7133772,-0.062715 z"
       id="path1" />
    <path
       style="font-size:7.83931px;font-family:'Gill Sans';-inkscape-font-specification:'Ubuntu Bold';letter-spacing:0px;word-spacing:0px;fill:#ff0000;stroke:none;stroke-width:0.999999px"
       d="M 9.027934,13.450272 H 7.8285195 L 10.462528,5.8618201 h 1.183736 z"
       id="path2" />
    <path
       style="font-size:7.83931px;font-family:'Gill Sans';-inkscape-font-specification:Ubuntu;letter-spacing:0px;word-spacing:0px;fill:#000000;stroke:none;stroke-width:0.999999px"
       d="m 14.617342,8.1038628 q 0.133268,-0.086232 0.399805,-0.1803041 0.274376,-0.094072 0.627145,-0.094072 0.439001,0 0.776091,0.1567862 0.34493,0.1567862 0.580109,0.4390014 0.23518,0.2822151 0.352769,0.6741806 0.125429,0.3919655 0.125429,0.8623242 0,0.4938769 -0.148947,0.8936819 -0.141107,0.391965 -0.407644,0.666341 -0.266536,0.274376 -0.642823,0.423323 -0.376287,0.148947 -0.846646,0.148947 -0.509555,0 -0.90152,-0.07055 -0.391966,-0.07055 -0.642824,-0.141108 V 6.0421243 l 0.729056,-0.125429 z m 0,3.2611532 q 0.10975,0.03136 0.305733,0.06271 0.203822,0.02352 0.501716,0.02352 0.587948,0 0.940717,-0.384126 0.352769,-0.391965 0.352769,-1.1053426 0,-0.3135725 -0.06271,-0.5879483 Q 16.592848,9.0994552 16.451741,8.9034725 16.310633,8.6996504 16.083293,8.5899001 15.863792,8.4723104 15.55022,8.4723104 q -0.297894,0 -0.548752,0.1019111 -0.250858,0.101911 -0.384126,0.2116613 z"
       id="path3" />
  </g>
</svg>
